<svg width="24" height="24" viewBox="0 0 24 24" fill="none" xmlns="http://www.w3.org/2000/svg">
<path d="M12 0C7.98279 0 4.71534 3.01067 4.71534 6.71219C4.71534 10.4137 7.98279 13.4244 12 13.4244C16.0172 13.4244 19.2847 10.4137 19.2847 6.71219C19.2847 3.01067 16.0172 0 12 0ZM11.5332 1.60716L10.8735 3.42698L13.7954 3.14492L13.5048 2.24357L14.3243 2.45263V3.45259L15.6043 3.52953L15.354 2.63216L16.0268 2.27311C17.4024 3.33301 18.276 4.92659 18.276 6.71219C18.276 7.57279 18.0729 8.38874 17.7087 9.12197L16.2444 9.35028V10.9756C15.9651 11.2117 15.6632 11.4241 15.3423 11.6101L14.7138 10.7092L13.4893 11.017L13.8334 12.2451C13.239 12.4113 12.6212 12.4955 12 12.495C10.2622 12.495 8.69181 11.8478 7.55653 10.8001L8.675 10.658L9.42644 9.29896L7.03304 8.19641L8.73064 6.86295L7.25578 5.73479L5.74881 6.19757C5.92319 4.36731 7.01819 2.78453 8.6063 1.84404L8.92548 4.1962L11.5332 1.60716ZM13.7119 4.92282L11.6851 6.11945L13.4561 7.56995L14.7353 7.22546L14.6172 8.63972L16.9589 8.09578L16.0733 6.24641L14.6565 6.26454L15.916 5.26731L13.712 4.92282H13.7119ZM11.6065 7.00789L10.5241 7.44299L11.2915 7.96881L11.6065 7.00789ZM9.06456 7.17073L8.31323 7.99117L10.3948 9.33918L9.06456 7.17073ZM12.4133 7.62432L11.6459 8.94802L13.4956 10.1084L12.8461 9.25616L13.6529 8.36772L12.4133 7.62432ZM1.0265 9.03879C0.532374 9.03171 0.026651 9.61154 0.0237371 11.098C0.0193663 13.3777 -0.220355 14.0212 0.924625 16.5994C1.76421 18.4901 2.14072 19.9433 4.82741 21.1176C5.14569 22.1514 5.01866 22.3944 4.80275 23.2779C4.60125 24.1026 6.67564 24.2542 8.19483 23.5594C9.82497 22.7401 9.68818 20.4844 9.39697 18.9547C9.05829 17.1757 7.99271 16.806 7.06907 16.0461C6.11002 14.7824 5.88682 12.4931 4.33138 11.5696C4.00654 11.3768 2.34939 11.181 4.62624 16.4201C1.62435 15.735 2.17114 12.5594 1.95406 10.2082C1.88939 9.50802 1.46246 9.04493 1.0265 9.03873V9.03879ZM22.9735 9.03879C22.5375 9.04498 22.1106 9.50802 22.0459 10.2083C21.8289 12.5594 22.3757 15.735 19.3738 16.4201C21.6507 11.181 19.9935 11.3768 19.6686 11.5696C18.1132 12.4931 17.89 14.7824 16.9309 16.0462C16.0073 16.806 14.9417 17.1757 14.603 18.9547C14.3118 20.4844 14.175 22.7401 15.8052 23.5594C17.3244 24.2542 19.3987 24.1026 19.1972 23.2779C18.9813 22.3944 18.8543 22.1514 19.1726 21.1176C21.8593 19.9433 22.2358 18.4901 23.0754 16.5994C24.2204 14.0212 23.9806 13.3777 23.9763 11.098C23.9733 9.61154 23.4676 9.03171 22.9735 9.03879Z" fill="black"/>
</svg>
